<svg width="15" height="27" viewBox="0 0 15 27" fill="none" xmlns="http://www.w3.org/2000/svg">
<path d="M6.63381 6.50121C7.01864 5.83417 7.98136 5.83417 8.36619 6.50121L14.1348 16.5001C14.5194 17.1668 14.0382 17.9998 13.2686 17.9998H1.73141C0.961752 17.9998 0.480609 17.1668 0.865224 16.5001L6.63381 6.50121Z" fill="#E38229"/>
<path d="M7.60398 9.96943C7.80662 9.96604 7.97816 10.0165 8.11859 10.1209C8.25377 10.2306 8.32319 10.3948 8.32685 10.6134L8.37283 13.3651C8.37649 13.5837 8.31255 13.7474 8.18102 13.8563C8.04424 13.9706 7.87453 14.0295 7.6719 14.0329C7.46926 14.0362 7.30035 13.9831 7.16516 13.8733C7.02473 13.769 6.95269 13.6075 6.94903 13.3889L6.90304 10.6372C6.89939 10.4186 6.96595 10.2521 7.10273 10.1378C7.23426 10.0289 7.40134 9.97282 7.60398 9.96943ZM7.68125 14.5928C7.92122 14.5888 8.11422 14.6469 8.26025 14.7671C8.40103 14.8928 8.47317 15.0596 8.47664 15.2676C8.48012 15.4756 8.41356 15.642 8.27696 15.767C8.13503 15.892 7.94408 15.9566 7.70411 15.9606C7.46948 15.9645 7.27915 15.9064 7.13312 15.7861C6.98709 15.6659 6.91234 15.5018 6.90886 15.2938C6.90538 15.0858 6.97457 14.9166 7.11641 14.7862C7.25301 14.6613 7.44129 14.5968 7.68125 14.5928Z" fill="white"/>
</svg>
