<svg width="14" height="14" viewBox="0 0 14 14" fill="none" xmlns="http://www.w3.org/2000/svg">
<path d="M7 0C5.61553 0 4.26215 0.410543 3.11101 1.17971C1.95987 1.94888 1.06266 3.04213 0.532846 4.32121C0.00303299 5.6003 -0.13559 7.00776 0.134506 8.36563C0.404603 9.7235 1.07129 10.9708 2.05026 11.9497C3.02922 12.9287 4.2765 13.5954 5.63437 13.8655C6.99224 14.1356 8.3997 13.997 9.67879 13.4672C10.9579 12.9373 12.0511 12.0401 12.8203 10.889C13.5895 9.73784 14 8.38447 14 7C14 6.08075 13.8189 5.17049 13.4672 4.32121C13.1154 3.47194 12.5998 2.70026 11.9497 2.05025C11.2997 1.40024 10.5281 0.884626 9.67879 0.532843C8.82951 0.18106 7.91925 0 7 0ZM10.01 5.327L6.811 9.527C6.74579 9.61171 6.66205 9.68036 6.56619 9.72768C6.47033 9.775 6.3649 9.79974 6.258 9.8C6.15168 9.80057 6.04662 9.77691 5.9508 9.73082C5.85498 9.68473 5.77092 9.61742 5.705 9.534L3.997 7.357C3.94047 7.28438 3.89879 7.20133 3.87435 7.1126C3.84991 7.02388 3.84319 6.9312 3.85456 6.83988C3.86594 6.74855 3.89519 6.66036 3.94065 6.58034C3.98611 6.50032 4.04688 6.43003 4.1195 6.3735C4.26617 6.25932 4.45218 6.20809 4.63662 6.23106C4.72795 6.24243 4.81614 6.27169 4.89616 6.31714C4.97618 6.3626 5.04647 6.42338 5.103 6.496L6.244 7.952L8.89 4.452C8.94608 4.37846 9.01609 4.31668 9.09604 4.2702C9.17598 4.22372 9.26431 4.19343 9.35596 4.18108C9.44761 4.16873 9.54079 4.17456 9.6302 4.19822C9.7196 4.22188 9.80346 4.26292 9.877 4.319C9.95054 4.37507 10.0123 4.44508 10.0588 4.52503C10.1053 4.60498 10.1356 4.6933 10.1479 4.78495C10.1603 4.8766 10.1544 4.96979 10.1308 5.05919C10.1071 5.14859 10.0661 5.23246 10.01 5.306V5.327Z" fill="#579C28"/>
</svg>
