<svg width="23" height="23" viewBox="0 0 23 23" fill="none" xmlns="http://www.w3.org/2000/svg">
<path d="M11.1667 0.395813C17.242 0.395813 22.1667 5.32051 22.1667 11.3958C22.1667 17.4711 17.242 22.3958 11.1667 22.3958C5.09139 22.3958 0.166687 17.4711 0.166687 11.3958C0.166687 5.32051 5.09139 0.395813 11.1667 0.395813ZM15.9154 7.88461C15.7956 7.76489 15.6359 7.69357 15.4668 7.68433C15.2977 7.6751 15.1312 7.72859 14.9991 7.83456L14.943 7.88461L9.37919 13.4484L7.39039 11.4596C7.26606 11.3352 7.09881 11.2632 6.92303 11.2584C6.74724 11.2536 6.57629 11.3163 6.44534 11.4337C6.31438 11.551 6.23337 11.7141 6.21898 11.8894C6.20458 12.0646 6.25789 12.2388 6.36794 12.3759L6.41799 12.432L8.89299 14.907C9.01274 15.0267 9.17248 15.0981 9.34156 15.1073C9.51065 15.1165 9.6772 15.063 9.80929 14.9571L9.86539 14.907L15.9154 8.85701C15.9792 8.79317 16.0299 8.71737 16.0645 8.63395C16.099 8.55053 16.1168 8.46111 16.1168 8.37081C16.1168 8.28051 16.099 8.1911 16.0645 8.10768C16.0299 8.02425 15.9792 7.94846 15.9154 7.88461Z" fill="#1A3C79"/>
</svg>
