<svg width="15" height="15" viewBox="0 0 15 15" fill="none" xmlns="http://www.w3.org/2000/svg">
<path d="M8.40643 7.41666L10.3867 5.43706C10.4518 5.37202 10.5034 5.29481 10.5386 5.20983C10.5737 5.12486 10.5919 5.03378 10.5919 4.94181C10.5919 4.84983 10.5737 4.75875 10.5386 4.67378C10.5034 4.5888 10.4518 4.51159 10.3867 4.44656C10.3217 4.38152 10.2445 4.32993 10.1595 4.29473C10.0745 4.25953 9.98345 4.24142 9.89148 4.24142C9.7995 4.24142 9.70842 4.25953 9.62345 4.29473C9.53847 4.32993 9.46126 4.38152 9.39623 4.44656L7.41663 6.42686L5.43703 4.44656C5.30568 4.31521 5.12753 4.24142 4.94178 4.24142C4.75602 4.24142 4.57787 4.31521 4.44653 4.44656C4.31518 4.5779 4.24139 4.75605 4.24139 4.94181C4.24139 5.03378 4.2595 5.12486 4.2947 5.20983C4.3299 5.29481 4.38149 5.37202 4.44653 5.43706L6.42683 7.41666L4.44653 9.39626C4.31518 9.52761 4.24139 9.70575 4.24139 9.89151C4.24139 10.0773 4.31518 10.2554 4.44653 10.3868C4.57787 10.5181 4.75602 10.5919 4.94178 10.5919C5.12753 10.5919 5.30568 10.5181 5.43703 10.3868L7.41663 8.40646L9.39623 10.3868C9.52757 10.5181 9.70572 10.5919 9.89148 10.5919C10.0772 10.5919 10.2554 10.5181 10.3867 10.3868C10.5181 10.2554 10.5919 10.0773 10.5919 9.89151C10.5919 9.70575 10.5181 9.52761 10.3867 9.39626L8.40643 7.41666ZM7.41663 14.4167C3.55053 14.4167 0.416626 11.2828 0.416626 7.41666C0.416626 3.55056 3.55053 0.416656 7.41663 0.416656C11.2827 0.416656 14.4166 3.55056 14.4166 7.41666C14.4166 11.2828 11.2827 14.4167 7.41663 14.4167Z" fill="#D52E25"/>
</svg>
