<svg width="17" height="21" viewBox="0 0 17 21" fill="none" xmlns="http://www.w3.org/2000/svg">
<path fill-rule="evenodd" clip-rule="evenodd" d="M8.38388 20.9344C2.85497 18.4714 0.0905151 16.0141 0.0905151 13.5625V4.34769C0.0905151 3.64036 0.361984 3.47597 1.1133 3.02101L1.11332 3.021C1.34079 2.88325 1.61225 2.71887 1.93349 2.50471C2.08258 2.40532 5.21693 0.661743 8.38388 0.661743C11.144 0.661743 13.4521 1.58323 14.8343 2.50471C15.1555 2.71887 15.427 2.88326 15.6545 3.02101C16.4058 3.47597 16.6773 3.64036 16.6773 4.34769C16.6954 4.54783 16.6865 8.80354 16.6808 11.529L16.6808 11.5304C16.6788 12.4598 16.6773 13.211 16.6773 13.5625C16.6773 16.0198 13.9128 18.4771 8.38388 20.9344ZM14.8343 13.5625C14.8343 13.3503 14.8348 12.9947 14.836 12.415L14.8397 10.6151C14.8409 10.0328 14.8418 9.53311 14.8426 9.05628C14.846 6.99939 14.8451 5.23399 14.8431 4.68797L14.7165 4.60939L14.7165 4.60937C14.4185 4.42451 14.0301 4.1836 13.812 4.03816C12.4516 3.13125 10.4666 2.50471 8.38388 2.50471C6.39171 2.50471 3.80284 3.47345 2.95578 4.03816C2.73761 4.18361 2.34922 4.42456 2.05124 4.60942L2.05123 4.60942L1.93349 4.68249V13.5625C1.93349 14.9526 3.98758 16.8511 8.38474 18.909C12.7814 16.8557 14.8343 14.9579 14.8343 13.5625ZM11.4182 7.38204L7.4624 11.3379L5.34953 9.22501L4.04635 10.5282L7.4624 13.9442L12.7214 8.68522L11.4182 7.38204Z" fill="#D52E25"/>
</svg>
