<svg width="74" height="73" viewBox="0 0 74 73" fill="none" xmlns="http://www.w3.org/2000/svg">
<g opacity="0.200986">
<rect x="0.0396729" y="0.897461" width="73.5694" height="71.5909" rx="19" fill="#D8D8D8"/>
<mask id="mask0" mask-type="alpha" maskUnits="userSpaceOnUse" x="0" y="0" width="74" height="73">
<rect x="0.0396729" y="0.897461" width="73.5694" height="71.5909" rx="19" fill="white"/>
</mask>
<g mask="url(#mask0)">
<rect x="0.0396729" y="0.897461" width="73.5694" height="71.5909" fill="url(#paint0_linear)"/>
</g>
</g>
<mask id="mask1" mask-type="alpha" maskUnits="userSpaceOnUse" x="15" y="18" width="43" height="37">
<path fill-rule="evenodd" clip-rule="evenodd" d="M53.9851 35.4942H37.9739V19.9136C37.9739 19.252 37.4221 18.7151 36.7422 18.7151C29.1874 18.7151 22.4627 23.1552 19.6398 29.8812L37.1314 35.5557C37.8868 35.8002 38.2095 36.6695 37.7867 37.3279L28.0149 52.5418C30.6884 53.9377 33.6804 54.6703 36.7422 54.6703C46.9524 54.6703 55.2167 46.6299 55.2167 36.6927C55.2167 36.0311 54.6649 35.4942 53.9851 35.4942ZM56.6126 30.7002H55.2167V22.3106C55.2167 21.6487 54.6653 21.1121 53.9851 21.1121C53.3049 21.1121 52.7535 21.6487 52.7535 22.3106V30.7002H50.2902V24.7076C50.2902 24.0457 49.7388 23.5091 49.0586 23.5091C48.3784 23.5091 47.827 24.0457 47.827 24.7076V30.7002H45.3637V27.1046C45.3637 26.4428 44.8123 25.9061 44.1321 25.9061C43.4519 25.9061 42.9004 26.4428 42.9004 27.1046V30.7002H41.6688C40.9886 30.7002 40.4372 31.2368 40.4372 31.8987C40.4372 32.5606 40.9886 33.0972 41.6688 33.0972H56.6126C57.2928 33.0972 57.8442 32.5606 57.8442 31.8987C57.8442 31.2368 57.2928 30.7002 56.6126 30.7002ZM16.203 32.7165C16.3466 32.0096 17.096 31.5833 17.8022 31.8124L34.8686 37.3487L25.335 52.1917C24.9434 52.8014 24.0879 52.9427 23.5105 52.484C18.7629 48.7128 15.8046 42.9952 15.8046 36.6927C15.8046 35.3495 15.9381 34.0196 16.203 32.7165Z" fill="white"/>
</mask>
<g mask="url(#mask1)">
<rect x="15.8046" y="16.2383" width="42.0397" height="40.9091" fill="url(#paint1_linear)"/>
</g>
<defs>
<linearGradient id="paint0_linear" x1="92.5497" y1="19.3174" x2="19.8342" y2="-19.1589" gradientUnits="userSpaceOnUse">
<stop stop-color="#1D46F6"/>
<stop offset="1" stop-color="#1D46F6" stop-opacity="0.37"/>
</linearGradient>
<linearGradient id="paint1_linear" x1="68.6674" y1="26.7639" x2="27.1157" y2="4.7775" gradientUnits="userSpaceOnUse">
<stop stop-color="#09387E"/>
<stop offset="1" stop-color="#09387E"/>
</linearGradient>
</defs>
</svg>
