<svg width="45" height="45" viewBox="0 0 45 45" fill="none" xmlns="http://www.w3.org/2000/svg">
<g opacity="0.200986">
<rect x="0.442505" y="0.821838" width="44.0394" height="44.0394" rx="19" fill="#D8D8D8"/>
<mask id="mask0" mask-type="alpha" maskUnits="userSpaceOnUse" x="0" y="0" width="45" height="45">
<rect x="0.442505" y="0.821838" width="44.0394" height="44.0394" rx="19" fill="white"/>
</mask>
<g mask="url(#mask0)">
<rect x="0.442505" y="0.821838" width="44.0394" height="44.0394" fill="url(#paint0_linear)"/>
</g>
</g>
<mask id="mask1" mask-type="alpha" maskUnits="userSpaceOnUse" x="9" y="11" width="26" height="23">
<path fill-rule="evenodd" clip-rule="evenodd" d="M32.3304 21.8784H22.7886V12.3365C22.7886 11.9314 22.4598 11.6025 22.0546 11.6025C17.5524 11.6025 13.5448 14.3217 11.8625 18.4408L22.2866 21.916C22.7368 22.0658 22.9291 22.5982 22.6771 23.0014L16.8536 32.3186C18.4468 33.1734 20.2299 33.6221 22.0546 33.6221C28.1394 33.6221 33.0644 28.6981 33.0644 22.6123C33.0644 22.2072 32.7356 21.8784 32.3304 21.8784ZM33.8963 18.9424H33.0645V13.8045C33.0645 13.3991 32.7358 13.0705 32.3305 13.0705C31.9251 13.0705 31.5965 13.3991 31.5965 13.8045V18.9424H30.1285V15.2725C30.1285 14.8671 29.7999 14.5385 29.3945 14.5385C28.9892 14.5385 28.6605 14.8671 28.6605 15.2725V18.9424H27.1926V16.7404C27.1926 16.3351 26.8639 16.0065 26.4586 16.0065C26.0532 16.0065 25.7246 16.3351 25.7246 16.7404V18.9424H24.9906C24.5852 18.9424 24.2566 19.271 24.2566 19.6764C24.2566 20.0817 24.5852 20.4104 24.9906 20.4104H33.8963C34.3017 20.4104 34.6303 20.0817 34.6303 19.6764C34.6303 19.271 34.3017 18.9424 33.8963 18.9424ZM9.81431 20.1772C9.89994 19.7443 10.3465 19.4833 10.7674 19.6235L20.938 23.0141L15.2565 32.1042C15.0232 32.4776 14.5133 32.5641 14.1692 32.2832C11.3399 29.9736 9.57689 26.4721 9.57689 22.6123C9.57689 21.7897 9.65645 20.9753 9.81431 20.1772Z" fill="white"/>
</mask>
<g mask="url(#mask1)">
<rect x="9.57689" y="10.0856" width="25.0534" height="25.0534" fill="url(#paint1_linear)"/>
</g>
<defs>
<linearGradient id="paint0_linear" x1="55.8199" y1="12.1529" x2="11.7805" y2="-10.5232" gradientUnits="userSpaceOnUse">
<stop stop-color="#1D46F6"/>
<stop offset="1" stop-color="#1D46F6" stop-opacity="0.37"/>
</linearGradient>
<linearGradient id="paint1_linear" x1="41.0804" y1="16.5317" x2="16.0269" y2="3.63161" gradientUnits="userSpaceOnUse">
<stop stop-color="#09387E"/>
<stop offset="1" stop-color="#09387E"/>
</linearGradient>
</defs>
</svg>
