<svg width="14" height="45" viewBox="0 0 14 45" fill="none" xmlns="http://www.w3.org/2000/svg">
<path d="M7 15.3C5.61553 15.3 4.26216 15.7105 3.11101 16.4797C1.95987 17.2489 1.06266 18.3421 0.532846 19.6212C0.00303299 20.9003 -0.13559 22.3078 0.134506 23.6656C0.404603 25.0235 1.07129 26.2708 2.05026 27.2497C3.02922 28.2287 4.2765 28.8954 5.63437 29.1655C6.99224 29.4356 8.3997 29.297 9.67879 28.7671C10.9579 28.2373 12.0511 27.3401 12.8203 26.189C13.5895 25.0378 14 23.6845 14 22.3C14 21.3807 13.8189 20.4705 13.4672 19.6212C13.1154 18.7719 12.5998 18.0002 11.9497 17.3502C11.2997 16.7002 10.5281 16.1846 9.67879 15.8328C8.82951 15.481 7.91925 15.3 7 15.3Z" fill="#4C71A8"/>
<path d="M7.10995 26.06C6.85662 26.06 6.64328 25.9933 6.46995 25.86C6.30328 25.72 6.21995 25.5133 6.21995 25.24V21.8C6.21995 21.5267 6.30328 21.3233 6.46995 21.19C6.64328 21.05 6.85662 20.98 7.10995 20.98C7.36328 20.98 7.57328 21.05 7.73995 21.19C7.91328 21.3233 7.99995 21.5267 7.99995 21.8V25.24C7.99995 25.5133 7.91328 25.72 7.73995 25.86C7.57328 25.9933 7.36328 26.06 7.10995 26.06ZM7.10995 20.28C6.80995 20.28 6.56995 20.2033 6.38995 20.05C6.21662 19.89 6.12995 19.68 6.12995 19.42C6.12995 19.16 6.21662 18.9533 6.38995 18.8C6.56995 18.6467 6.80995 18.57 7.10995 18.57C7.40328 18.57 7.63995 18.6467 7.81995 18.8C7.99995 18.9533 8.08995 19.16 8.08995 19.42C8.08995 19.68 7.99995 19.89 7.81995 20.05C7.64662 20.2033 7.40995 20.28 7.10995 20.28Z" fill="white"/>
</svg>
