<svg width="164" height="39" viewBox="0 0 164 39" fill="none" xmlns="http://www.w3.org/2000/svg">
<path d="M30.2483 26.4635L27.3213 21.9371C26.7769 21.0982 26.2945 20.5307 25.8748 20.2355C25.4547 19.9407 24.8593 19.7931 24.0882 19.7931H22.897V26.4635H18.5746V9.44678H22.897V15.6411H23.9521C24.7232 15.6411 25.3134 15.4937 25.7218 15.1985C26.1302 14.9039 26.6066 14.3366 27.1511 13.4969L29.8059 9.44678H34.6046L30.7928 15.1985C29.9303 16.5375 29.1252 17.3656 28.3764 17.6831C29.1475 17.9329 30.01 18.7839 30.9629 20.2355L35.047 26.4635H30.2483Z" fill="white"/>
<path d="M44.2802 9.24316C47.0027 9.24316 49.2373 10.287 50.9848 12.3743L48.3982 15.165C47.1501 14.0079 45.7775 13.4294 44.2802 13.4294C43.0772 13.4294 42.0451 13.8495 41.1831 14.6886C40.3206 15.5281 39.8896 16.6172 39.8896 17.9559C39.8896 19.2949 40.3206 20.384 41.1831 21.2229C42.0451 22.0627 43.0772 22.4821 44.2802 22.4821C45.7775 22.4821 47.1501 21.9038 48.3982 20.7468L50.9848 23.5374C49.2373 25.6252 47.0027 26.6683 44.2802 26.6683C41.852 26.6683 39.7929 25.8178 38.103 24.1157C36.4124 22.4141 35.5675 20.3611 35.5675 17.9559C35.5675 15.5511 36.4124 13.4974 38.103 11.7958C39.7929 10.094 41.852 9.24316 44.2802 9.24316Z" fill="white"/>
<path d="M69.9732 26.4635H65.6508V13.633H58.2315V26.4635H53.9092V9.44678H69.9732V26.4635Z" fill="white"/>
<path d="M109.375 26.4635H105.053V20.0312H97.6328V26.4635H93.3107V9.44678H97.6328V15.8452H105.053V9.44678H109.375V26.4635Z" fill="white"/>
<path d="M120.687 9.24316C123.41 9.24316 125.644 10.287 127.392 12.3743L124.806 15.165C123.558 14.0079 122.185 13.4294 120.687 13.4294C119.484 13.4294 118.452 13.8495 117.59 14.6886C116.728 15.5281 116.297 16.6172 116.297 17.9559C116.297 19.2949 116.728 20.384 117.59 21.2229C118.452 22.0627 119.484 22.4821 120.687 22.4821C122.185 22.4821 123.558 21.9038 124.806 20.7468L127.392 23.5374C125.644 25.6252 123.41 26.6683 120.687 26.6683C118.259 26.6683 116.2 25.8178 114.51 24.1157C112.82 22.4141 111.975 20.3611 111.975 17.9559C111.975 15.5511 112.82 13.4974 114.51 11.7958C116.2 10.094 118.259 9.24316 120.687 9.24316Z" fill="white"/>
<path d="M145.745 26.4635H141.422V16.4237L132.71 26.4635H129.919V9.44678H134.241V19.4871L142.954 9.44678H145.745V26.4635Z" fill="white"/>
<path d="M163.989 26.4635H159.667V21.5289H157.897C157.216 21.5518 156.683 21.7107 156.298 22.0055C155.911 22.3007 155.435 22.8561 154.868 23.6733L152.962 26.4635H148.265L150.444 23.1963C151.237 21.9942 151.85 21.2341 152.282 20.9164C151.147 20.5762 150.239 19.9124 149.559 18.9252C148.878 17.9383 148.538 16.878 148.538 15.743C148.538 14.9721 148.657 14.2403 148.895 13.548C149.134 12.856 149.519 12.1866 150.052 11.5399C150.585 10.8932 151.363 10.3829 152.384 10.0084C153.404 9.63399 154.607 9.44678 155.991 9.44678H163.989V26.4635ZM159.667 13.633H155.515C153.745 13.633 152.86 14.3366 152.86 15.743C152.86 17.1725 153.745 17.8872 155.515 17.8872H159.667V13.633Z" fill="white"/>
<path d="M58.8692 37.4331H57.5777V35.3552L56.6175 36.4812L55.6489 35.3552V37.4331H54.3574V33.2939H55.2019L56.6175 34.9412L58.0247 33.2939H58.8692V37.4331Z" fill="white"/>
<path d="M63.6872 37.4329H62.8427L62.7599 37.0274C62.4289 37.3308 62.0231 37.4827 61.5431 37.4827C60.9635 37.4827 60.4876 37.2784 60.115 36.8699C59.7427 36.4619 59.5563 35.9593 59.5563 35.3636C59.5563 34.7674 59.7427 34.2637 60.115 33.8527C60.4876 33.4416 60.9635 33.2358 61.5431 33.2358C62.0231 33.2358 62.4316 33.3903 62.7682 33.6992L62.8427 33.2937H63.6872V37.4329ZM61.0961 35.9965C61.2616 36.154 61.4548 36.2324 61.6754 36.2324C61.8963 36.2324 62.0895 36.154 62.255 35.9965C62.4206 35.8395 62.5033 35.6282 62.5033 35.3636C62.5033 35.0984 62.4206 34.8861 62.255 34.7261C62.0895 34.5661 61.8963 34.4861 61.6754 34.4861C61.4548 34.4861 61.2616 34.5661 61.0961 34.7261C60.9306 34.8861 60.8478 35.0984 60.8478 35.3636C60.8478 35.6282 60.9306 35.8395 61.0961 35.9965Z" fill="white"/>
<path d="M66.4932 33.2446C67.1555 33.2446 67.6989 33.4982 68.1241 34.0059L67.3543 34.8421C67.0839 34.6101 66.7968 34.4944 66.4932 34.4944C66.2726 34.4944 66.0794 34.5729 65.9138 34.7304C65.7483 34.8878 65.6655 35.0986 65.6655 35.3638C65.6655 35.6284 65.7483 35.8397 65.9138 35.9967C66.0794 36.1542 66.2726 36.2327 66.4932 36.2327C66.7968 36.2327 67.0839 36.117 67.3543 35.885L68.1241 36.7212C67.6989 37.2289 67.1555 37.4829 66.4932 37.4829C65.9028 37.4829 65.4019 37.2757 64.9908 36.8621C64.5795 36.448 64.374 35.9484 64.374 35.3638C64.374 34.7787 64.5795 34.2791 64.9908 33.8655C65.4019 33.4514 65.9028 33.2446 66.4932 33.2446Z" fill="white"/>
<path d="M75.0112 37.4331H68.7694V33.2939H70.0609V36.1834H71.2448V33.2939H72.5361V36.1834H73.7199V33.2939H75.0112V37.4331Z" fill="white"/>
<path d="M77.9911 34.5442V37.4331H76.6998V34.5442H75.5326V33.2939H79.1501V34.5442H77.9911Z" fill="white"/>
<path d="M83.5291 37.4329H82.6846L82.6018 37.0274C82.2708 37.3308 81.865 37.4827 81.385 37.4827C80.8054 37.4827 80.3295 37.2784 79.9569 36.8699C79.5846 36.4619 79.3982 35.9593 79.3982 35.3636C79.3982 34.7674 79.5846 34.2637 79.9569 33.8527C80.3295 33.4416 80.8054 33.2358 81.385 33.2358C81.865 33.2358 82.2736 33.3903 82.6101 33.6992L82.6846 33.2937H83.5291V37.4329ZM80.938 35.9965C81.1035 36.154 81.2967 36.2324 81.5174 36.2324C81.7382 36.2324 81.9314 36.154 82.097 35.9965C82.2625 35.8395 82.3452 35.6282 82.3452 35.3636C82.3452 35.0984 82.2625 34.8861 82.097 34.7261C81.9314 34.5661 81.7382 34.4861 81.5174 34.4861C81.2967 34.4861 81.1035 34.5661 80.938 34.7261C80.7725 34.8861 80.6897 35.0984 80.6897 35.3636C80.6897 35.6282 80.7725 35.8395 80.938 35.9965Z" fill="white"/>
<path d="M87.1465 31.6387H88.438C88.438 32.0965 88.3165 32.4442 88.0738 32.6816C87.8308 32.9186 87.4114 33.0374 86.8154 33.0374H86.501C86.2029 33.0374 85.9642 33.1093 85.7848 33.2527C85.6054 33.3961 85.5159 33.5893 85.5159 33.8323V33.9646C85.6205 33.8157 85.7695 33.697 85.9629 33.6084C86.1559 33.5204 86.3657 33.4761 86.5921 33.4761C87.1714 33.4761 87.6295 33.6517 87.9661 34.0018C88.3027 34.3525 88.471 34.8063 88.471 35.3638C88.471 35.9761 88.2778 36.4868 87.8916 36.8953C87.5052 37.3033 86.9893 37.5076 86.3435 37.5076C85.7365 37.5076 85.2316 37.3033 84.8286 36.8953C84.4259 36.4868 84.2244 35.9379 84.2244 35.2476V34.3123C84.2244 33.5727 84.4299 32.9946 84.8412 32.578C85.2522 32.1614 85.8414 31.9531 86.6084 31.9531C86.8127 31.9531 86.9533 31.931 87.0308 31.8867C87.108 31.8424 87.1465 31.7599 87.1465 31.6387ZM86.9188 34.8878C86.7505 34.7359 86.5589 34.6599 86.3435 34.6599C86.1284 34.6599 85.9365 34.7359 85.7682 34.8878C85.5999 35.0393 85.5159 35.231 85.5159 35.4629C85.5159 35.6949 85.5986 35.884 85.7642 36.0299C85.9297 36.1763 86.1229 36.2493 86.3435 36.2493C86.5589 36.2493 86.7505 36.1763 86.9188 36.0299C87.0871 35.884 87.1714 35.6949 87.1714 35.4629C87.1714 35.231 87.0871 35.0393 86.9188 34.8878Z" fill="white"/>
<path d="M93.148 37.4331H91.8567V35.9514H90.4412V37.4331H89.1497V33.2939H90.4412V34.7012H91.8567V33.2939H93.148V37.4331Z" fill="white"/>
<path d="M95.3663 34.4033H96.0783C96.437 34.4033 96.7431 34.4531 96.997 34.5523C97.2508 34.6519 97.4359 34.7842 97.5517 34.9497C97.6676 35.1153 97.7476 35.2752 97.7919 35.4297C97.8359 35.5842 97.8581 35.7472 97.8581 35.9182C97.8581 36.0893 97.8359 36.2523 97.7919 36.4068C97.7476 36.5612 97.6676 36.7212 97.5517 36.8868C97.4359 37.0523 97.2508 37.1846 96.997 37.2842C96.7431 37.3833 96.437 37.4331 96.0783 37.4331H94.0748V33.2939H95.3663V34.4033ZM95.3663 36.2246H96.2189C96.4561 36.2246 96.5749 36.1225 96.5749 35.9182C96.5749 35.7195 96.4561 35.6204 96.2189 35.6204H95.3663V36.2246ZM99.497 37.4331H98.2057V33.2939H99.497V37.4331Z" fill="white"/>
<path d="M104.34 37.4329H103.048V35.355L101.268 37.4329H100.424V33.2937H101.715V35.3716L103.495 33.2937H104.34V37.4329ZM103.367 32.611C103.105 32.8676 102.783 32.9959 102.402 32.9959C102.022 32.9959 101.699 32.8676 101.434 32.611C101.169 32.3544 101.037 32.0329 101.037 31.6465H101.914C101.914 31.7788 101.961 31.8905 102.055 31.9816C102.149 32.0726 102.265 32.1184 102.402 32.1184C102.535 32.1184 102.648 32.0726 102.742 31.9816C102.836 31.8905 102.883 31.7788 102.883 31.6465H103.76C103.76 32.0329 103.629 32.3544 103.367 32.611Z" fill="white"/>
<path d="M107.733 33.2939H109.902C110.884 33.2939 111.376 33.6778 111.376 34.4446C111.376 34.8697 111.196 35.1485 110.837 35.2808C111.075 35.3306 111.257 35.4337 111.384 35.5912C111.511 35.7487 111.574 35.9404 111.574 36.1668C111.574 36.6302 111.443 36.9572 111.181 37.1474C110.919 37.3381 110.493 37.4331 109.902 37.4331H107.733V33.2939ZM109.025 34.3867V34.8506H109.836C110.001 34.8395 110.084 34.7621 110.084 34.6187C110.084 34.4642 109.993 34.3867 109.811 34.3867H109.025ZM109.025 36.3404H109.944C110.17 36.3404 110.283 36.2468 110.283 36.0591C110.283 35.877 110.175 35.7829 109.96 35.7774H109.025V36.3404Z" fill="white"/>
<path d="M114.083 33.2358C114.943 33.2358 115.542 33.5921 115.879 34.304C115.978 34.5082 116.032 34.7482 116.04 35.0239C116.048 35.3002 116.014 35.5371 115.937 35.7359H113.337C113.337 35.9125 113.411 36.0518 113.557 36.154C113.703 36.2561 113.881 36.3069 114.091 36.3069C114.505 36.3069 114.888 36.2355 115.241 36.0921L115.912 36.8287C115.321 37.2649 114.714 37.4827 114.091 37.4827C113.478 37.4827 112.977 37.28 112.588 36.8739C112.199 36.4684 112.005 35.9648 112.005 35.3636C112.005 34.7563 112.192 34.2501 112.568 33.8441C112.943 33.4386 113.448 33.2358 114.083 33.2358ZM114.083 34.4197C113.884 34.4197 113.72 34.4735 113.59 34.5812C113.46 34.6889 113.393 34.8031 113.387 34.9248H114.77C114.77 34.8418 114.736 34.7618 114.67 34.6843C114.543 34.5082 114.347 34.4197 114.083 34.4197Z" fill="white"/>
<path d="M119.513 31.6387H120.804C120.804 32.0965 120.683 32.4442 120.44 32.6816C120.197 32.9186 119.778 33.0374 119.182 33.0374H118.867C118.569 33.0374 118.33 33.1093 118.151 33.2527C117.972 33.3961 117.882 33.5893 117.882 33.8323V33.9646C117.987 33.8157 118.136 33.697 118.329 33.6084C118.522 33.5204 118.732 33.4761 118.958 33.4761C119.538 33.4761 119.996 33.6517 120.332 34.0018C120.669 34.3525 120.837 34.8063 120.837 35.3638C120.837 35.9761 120.644 36.4868 120.258 36.8953C119.872 37.3033 119.356 37.5076 118.71 37.5076C118.103 37.5076 117.598 37.3033 117.195 36.8953C116.792 36.4868 116.591 35.9379 116.591 35.2476V34.3123C116.591 33.5727 116.796 32.9946 117.208 32.578C117.619 32.1614 118.208 31.9531 118.975 31.9531C119.179 31.9531 119.32 31.931 119.397 31.8867C119.474 31.8424 119.513 31.7599 119.513 31.6387ZM119.285 34.8878C119.117 34.7359 118.925 34.6599 118.71 34.6599C118.495 34.6599 118.303 34.7359 118.135 34.8878C117.966 35.0393 117.882 35.231 117.882 35.4629C117.882 35.6949 117.965 35.884 118.131 36.0299C118.296 36.1763 118.489 36.2493 118.71 36.2493C118.925 36.2493 119.117 36.1763 119.285 36.0299C119.453 35.884 119.538 35.6949 119.538 35.4629C119.538 35.231 119.453 35.0393 119.285 34.8878Z" fill="white"/>
<path d="M123.32 35.4461H121.267V34.6597H123.32V35.4461Z" fill="white"/>
<path d="M128.006 37.4331H126.715V34.5442H125.299V37.4331H124.007V33.2939H128.006V37.4331Z" fill="white"/>
<path d="M131.118 33.2446C131.698 33.2446 132.174 33.4484 132.546 33.8569C132.919 34.2655 133.105 34.7676 133.105 35.3638C133.105 35.9595 132.919 36.4631 132.546 36.8742C132.174 37.2857 131.698 37.491 131.118 37.491C130.804 37.491 130.519 37.414 130.266 37.2591V38.9561H128.974V33.2939H129.827L129.902 33.6995C130.233 33.3961 130.638 33.2446 131.118 33.2446ZM130.986 34.4944C130.771 34.4944 130.579 34.5729 130.41 34.7304C130.242 34.8878 130.158 35.0986 130.158 35.3638C130.158 35.6284 130.242 35.8413 130.41 36.0012C130.579 36.1612 130.771 36.2412 130.986 36.2412C131.206 36.2412 131.4 36.1612 131.565 36.0012C131.731 35.8413 131.814 35.6284 131.814 35.3638C131.814 35.0986 131.731 34.8878 131.565 34.7304C131.4 34.5729 131.206 34.4944 130.986 34.4944Z" fill="white"/>
<path d="M135.662 33.2358C136.253 33.2358 136.755 33.4441 137.169 33.8607C137.583 34.2778 137.79 34.7784 137.79 35.3636C137.79 35.9482 137.583 36.4478 137.169 36.8619C136.755 37.2754 136.253 37.4827 135.662 37.4827C135.072 37.4827 134.571 37.2754 134.16 36.8619C133.749 36.4478 133.543 35.9482 133.543 35.3636C133.543 34.7729 133.75 34.2708 134.164 33.8567C134.578 33.4426 135.078 33.2358 135.662 33.2358ZM136.242 34.7261C136.077 34.5661 135.883 34.4861 135.662 34.4861C135.442 34.4861 135.249 34.5661 135.083 34.7261C134.918 34.8861 134.835 35.0984 134.835 35.3636C134.835 35.6282 134.918 35.8395 135.083 35.9965C135.249 36.154 135.442 36.2324 135.662 36.2324C135.883 36.2324 136.077 36.154 136.242 35.9965C136.408 35.8395 136.49 35.6282 136.49 35.3636C136.49 35.0984 136.408 34.8861 136.242 34.7261Z" fill="white"/>
<path d="M142.897 38.1204H141.606V37.4331H139.338V38.1204H138.047V36.1834H138.709L140.05 33.2939H140.894L142.227 36.1834H142.897V38.1204ZM140.464 35.1651L140.025 36.1834H140.902L140.464 35.1651Z" fill="white"/>
<path d="M147.186 37.4329H146.341L146.258 37.0274C145.927 37.3308 145.522 37.4827 145.042 37.4827C144.462 37.4827 143.986 37.2784 143.614 36.8699C143.241 36.4619 143.055 35.9593 143.055 35.3636C143.055 34.7674 143.241 34.2637 143.614 33.8527C143.986 33.4416 144.462 33.2358 145.042 33.2358C145.522 33.2358 145.93 33.3903 146.267 33.6992L146.341 33.2937H147.186V37.4329ZM144.595 35.9965C144.76 36.154 144.953 36.2324 145.174 36.2324C145.395 36.2324 145.588 36.154 145.754 35.9965C145.919 35.8395 146.002 35.6282 146.002 35.3636C146.002 35.0984 145.919 34.8861 145.754 34.7261C145.588 34.5661 145.395 34.4861 145.174 34.4861C144.953 34.4861 144.76 34.5661 144.595 34.7261C144.429 34.8861 144.346 35.0984 144.346 35.3636C144.346 35.6282 144.429 35.8395 144.595 35.9965Z" fill="white"/>
<path d="M150.894 37.4331L150.166 36.3072C150.072 36.1638 149.983 36.0662 149.901 36.0133C149.818 35.961 149.705 35.9348 149.561 35.9348H149.454V37.4331H148.162V33.2939H149.454V34.6846H149.553C149.697 34.6846 149.81 34.6589 149.892 34.6061C149.975 34.5538 150.063 34.4587 150.157 34.3203L150.82 33.2939H152.252L151.25 34.8174C151.184 34.9165 151.098 35.0171 150.993 35.1193C150.889 35.2214 150.803 35.2863 150.737 35.314C150.809 35.3361 150.895 35.3965 150.998 35.4961C151.1 35.5952 151.187 35.6974 151.258 35.8025L152.326 37.4331H150.894Z" fill="white"/>
<path d="M159.007 37.4331H152.765V33.2939H154.056V36.1834H155.24V33.2939H156.532V36.1834H157.715V33.2939H159.007V37.4331Z" fill="white"/>
<path d="M163.94 37.4331H162.649V35.9514H161.233V37.4331H159.942V33.2939H161.233V34.7012H162.649V33.2939H163.94V37.4331Z" fill="white"/>
<path d="M85.676 9.4472V10.4538C84.3778 9.68562 82.8641 9.24316 81.2464 9.24316C76.4346 9.24316 72.5338 13.1439 72.5338 17.9557C72.5338 22.7675 76.4346 26.6683 81.2464 26.6683C82.8641 26.6683 84.3778 26.2258 85.676 25.4576V26.464H89.9981V9.4472H85.676ZM81.2464 22.6038C78.6834 22.6038 76.5983 20.5187 76.5983 17.9557C76.5983 15.3927 78.6833 13.3076 81.2464 13.3076C83.8094 13.3077 85.8944 15.3927 85.8944 17.9557C85.8944 20.5187 83.8094 22.6038 81.2464 22.6038Z" fill="white"/>
<path d="M19.3288 0.0336914L19.4408 2.37949L20.8007 4.29421L18.4548 4.40615L16.54 5.76597L16.428 3.42018L15.068 1.50545L17.4139 1.39351L19.3288 0.0336914Z" fill="#D0502E"/>
<path d="M12.3373 15.9426L15.8155 7.20117L12.4366 11.4327C10.9034 10.0829 8.89281 9.26261 6.68958 9.2626C4.00096 9.2626 1.59777 10.4823 0.00130367 12.398L2.80831 15.4278C3.638 14.1633 5.06746 13.3259 6.68957 13.3259C7.93203 13.3259 9.06107 13.8178 9.89478 14.6158L6.73881 18.568L11.289 18.568C10.9927 20.8428 9.0438 22.6056 6.68957 22.6056C5.06674 22.6056 3.63675 21.7676 2.80723 20.5021L0 23.5322C1.59646 25.4486 4.00025 26.669 6.68957 26.669C11.4962 26.669 15.3928 22.7725 15.3928 17.9658C15.3928 16.4779 15.0186 15.0778 14.3601 13.8531L12.3373 15.9426Z" fill="white"/>
</svg>
