<svg width="156" height="38" viewBox="0 0 156 38" fill="none" xmlns="http://www.w3.org/2000/svg">
<path d="M28.7747 25.1423L25.9902 20.8364C25.4724 20.0384 25.0135 19.4985 24.6143 19.2177C24.2146 18.9373 23.6482 18.7969 22.9147 18.7969H21.7815V25.1423H17.6697V8.95459H21.7815V14.8471H22.7852C23.5187 14.8471 24.0802 14.7069 24.4687 14.4261C24.8572 14.1459 25.3104 13.6062 25.8284 12.8074L28.3538 8.95459H32.9188L29.2927 14.4261C28.4722 15.6999 27.7063 16.4876 26.9939 16.7897C27.7275 17.0273 28.548 17.8368 29.4545 19.2177L33.3396 25.1423H28.7747Z" fill="#01266A"/>
<path d="M42.1229 8.76074C44.7128 8.76074 46.8386 9.75375 48.5009 11.7393L46.0404 14.394C44.853 13.2934 43.5473 12.743 42.1229 12.743C40.9786 12.743 39.9967 13.1427 39.1767 13.9409C38.3562 14.7395 37.9463 15.7756 37.9463 17.049C37.9463 18.3228 38.3562 19.3589 39.1767 20.1569C39.9967 20.9557 40.9786 21.3547 42.1229 21.3547C43.5473 21.3547 44.853 20.8046 46.0404 19.7039L48.5009 22.3586C46.8386 24.3446 44.7128 25.337 42.1229 25.337C39.8131 25.337 37.8542 24.5279 36.2467 22.9088C34.6385 21.2901 33.8347 19.337 33.8347 17.049C33.8347 14.7614 34.6385 12.8077 36.2467 11.189C37.8542 9.57009 39.8131 8.76074 42.1229 8.76074Z" fill="#01266A"/>
<path d="M66.5643 25.1423H62.4525V12.9369H55.3946V25.1423H51.2828V8.95459H66.5643V25.1423Z" fill="#01266A"/>
<path d="M104.046 25.1423H99.9346V19.0233H92.8763V25.1423H88.7648V8.95459H92.8763V15.0413H99.9346V8.95459H104.046V25.1423Z" fill="#01266A"/>
<path d="M114.808 8.76074C117.398 8.76074 119.523 9.75375 121.186 11.7393L118.725 14.394C117.538 13.2934 116.232 12.743 114.808 12.743C113.663 12.743 112.682 13.1427 111.861 13.9409C111.041 14.7395 110.631 15.7756 110.631 17.049C110.631 18.3228 111.041 19.3589 111.861 20.1569C112.682 20.9557 113.663 21.3547 114.808 21.3547C116.232 21.3547 117.538 20.8046 118.725 19.7039L121.186 22.3586C119.523 24.3446 117.398 25.337 114.808 25.337C112.498 25.337 110.539 24.5279 108.931 22.9088C107.323 21.2901 106.519 19.337 106.519 17.049C106.519 14.7614 107.323 12.8077 108.931 11.189C110.539 9.57009 112.498 8.76074 114.808 8.76074Z" fill="#01266A"/>
<path d="M138.644 25.1423H134.532V15.5916L126.244 25.1423H123.589V8.95459H127.701V18.5058L135.989 8.95459H138.644V25.1423Z" fill="#01266A"/>
<path d="M156 25.1423H151.888V20.4481H150.205C149.557 20.4699 149.05 20.6211 148.683 20.9015C148.316 21.1823 147.862 21.7106 147.323 22.488L145.51 25.1423H141.042L143.114 22.0342C143.869 20.8908 144.453 20.1677 144.863 19.8654C143.783 19.5418 142.92 18.9103 142.273 17.9713C141.625 17.0324 141.301 16.0238 141.301 14.9441C141.301 14.2107 141.415 13.5146 141.641 12.856C141.868 12.1977 142.235 11.5609 142.742 10.9457C143.249 10.3305 143.988 9.84506 144.96 9.48887C145.931 9.13268 147.075 8.95459 148.392 8.95459H156V25.1423ZM151.888 12.9369H147.938C146.255 12.9369 145.413 13.6062 145.413 14.9441C145.413 16.304 146.255 16.9838 147.938 16.9838H151.888V12.9369Z" fill="#01266A"/>
<path d="M56.0012 35.5772H54.7726V33.6005L53.8592 34.6717L52.9378 33.6005V35.5772H51.7092V31.6396H52.5126L53.8592 33.2066L55.1978 31.6396H56.0012V35.5772Z" fill="#01266A"/>
<path d="M60.5844 35.5771H59.7811L59.7024 35.1913C59.3874 35.4799 59.0014 35.6244 58.5448 35.6244C57.9935 35.6244 57.5407 35.4301 57.1863 35.0415C56.8321 34.6533 56.6548 34.1752 56.6548 33.6085C56.6548 33.0414 56.8321 32.5623 57.1863 32.1713C57.5407 31.7802 57.9935 31.5845 58.5448 31.5845C59.0014 31.5845 59.3901 31.7314 59.7102 32.0253L59.7811 31.6395H60.5844V35.5771ZM58.1196 34.2106C58.277 34.3604 58.4608 34.4351 58.6707 34.4351C58.8808 34.4351 59.0646 34.3604 59.2221 34.2106C59.3795 34.0613 59.4583 33.8603 59.4583 33.6085C59.4583 33.3563 59.3795 33.1543 59.2221 33.0021C59.0646 32.8499 58.8808 32.7738 58.6707 32.7738C58.4608 32.7738 58.277 32.8499 58.1196 33.0021C57.9621 33.1543 57.8834 33.3563 57.8834 33.6085C57.8834 33.8603 57.9621 34.0613 58.1196 34.2106Z" fill="#01266A"/>
<path d="M63.2537 31.5928C63.8838 31.5928 64.4007 31.834 64.8051 32.3169L64.0729 33.1124C63.8156 32.8917 63.5426 32.7816 63.2537 32.7816C63.0438 32.7816 62.8601 32.8563 62.7026 33.0061C62.5451 33.1559 62.4664 33.3565 62.4664 33.6087C62.4664 33.8604 62.5451 34.0615 62.7026 34.2108C62.8601 34.3606 63.0438 34.4353 63.2537 34.4353C63.5426 34.4353 63.8156 34.3252 64.0729 34.1045L64.8051 34.9C64.4007 35.3829 63.8838 35.6246 63.2537 35.6246C62.6921 35.6246 62.2156 35.4274 61.8246 35.034C61.4333 34.6401 61.2378 34.1648 61.2378 33.6087C61.2378 33.0521 61.4333 32.5768 61.8246 32.1834C62.2156 31.7895 62.6921 31.5928 63.2537 31.5928Z" fill="#01266A"/>
<path d="M71.3567 35.5772H65.4191V31.6396H66.6477V34.3883H67.7738V31.6396H69.0022V34.3883H70.1284V31.6396H71.3567V35.5772Z" fill="#01266A"/>
<path d="M74.1915 32.829V35.5772H72.9632V32.829H71.8528V31.6396H75.294V32.829H74.1915Z" fill="#01266A"/>
<path d="M79.4597 35.5771H78.6563L78.5776 35.1913C78.2627 35.4799 77.8767 35.6244 77.4201 35.6244C76.8687 35.6244 76.4159 35.4301 76.0615 35.0415C75.7074 34.6533 75.53 34.1752 75.53 33.6085C75.53 33.0414 75.7074 32.5623 76.0615 32.1713C76.4159 31.7802 76.8687 31.5845 77.4201 31.5845C77.8767 31.5845 78.2653 31.7314 78.5855 32.0253L78.6563 31.6395H79.4597V35.5771ZM76.9948 34.2106C77.1523 34.3604 77.3361 34.4351 77.546 34.4351C77.7561 34.4351 77.9398 34.3604 78.0973 34.2106C78.2548 34.0613 78.3335 33.8603 78.3335 33.6085C78.3335 33.3563 78.2548 33.1543 78.0973 33.0021C77.9398 32.8499 77.7561 32.7738 77.546 32.7738C77.3361 32.7738 77.1523 32.8499 76.9948 33.0021C76.8374 33.1543 76.7586 33.3563 76.7586 33.6085C76.7586 33.8603 76.8374 34.0613 76.9948 34.2106Z" fill="#01266A"/>
<path d="M82.9009 30.0649H84.1295C84.1295 30.5005 84.0139 30.8312 83.783 31.0571C83.5518 31.2825 83.1529 31.3955 82.5859 31.3955H82.2868C82.0032 31.3955 81.7761 31.4639 81.6055 31.6003C81.4349 31.7367 81.3497 31.9205 81.3497 32.1517V32.2776C81.4492 32.1359 81.5909 32.0229 81.7749 31.9387C81.9585 31.855 82.1581 31.8128 82.3734 31.8128C82.9246 31.8128 83.3603 31.9799 83.6805 32.313C84.0007 32.6466 84.1608 33.0783 84.1608 33.6086C84.1608 34.1911 83.977 34.6769 83.6097 35.0655C83.2421 35.4536 82.7513 35.648 82.137 35.648C81.5596 35.648 81.0793 35.4536 80.6959 35.0655C80.3128 34.6769 80.1211 34.1547 80.1211 33.498V32.6083C80.1211 31.9047 80.3166 31.3548 80.7079 30.9585C81.0989 30.5622 81.6594 30.3641 82.389 30.3641C82.5833 30.3641 82.7171 30.343 82.7908 30.3009C82.8643 30.2588 82.9009 30.1803 82.9009 30.0649ZM82.6843 33.1558C82.5242 33.0113 82.3419 32.939 82.137 32.939C81.9324 32.939 81.7498 33.0113 81.5897 33.1558C81.4296 33.2999 81.3497 33.4822 81.3497 33.7029C81.3497 33.9235 81.4284 34.1035 81.5859 34.2423C81.7434 34.3816 81.9271 34.451 82.137 34.451C82.3419 34.451 82.5242 34.3816 82.6843 34.2423C82.8444 34.1035 82.9246 33.9235 82.9246 33.7029C82.9246 33.4822 82.8444 33.2999 82.6843 33.1558Z" fill="#01266A"/>
<path d="M88.6101 35.5772H87.3817V34.1677H86.0351V35.5772H84.8065V31.6396H86.0351V32.9783H87.3817V31.6396H88.6101V35.5772Z" fill="#01266A"/>
<path d="M90.7203 32.695H91.3975C91.7388 32.695 92.03 32.7424 92.2715 32.8367C92.5129 32.9314 92.6891 33.0573 92.7992 33.2148C92.9095 33.3722 92.9856 33.5244 93.0277 33.6714C93.0696 33.8183 93.0906 33.9734 93.0906 34.1361C93.0906 34.2988 93.0696 34.4539 93.0277 34.6008C92.9856 34.7478 92.9095 34.9 92.7992 35.0574C92.6891 35.2149 92.5129 35.3408 92.2715 35.4355C92.03 35.5298 91.7388 35.5772 91.3975 35.5772H89.4917V31.6396H90.7203V32.695ZM90.7203 34.4276H91.5313C91.757 34.4276 91.8699 34.3304 91.8699 34.1361C91.8699 33.947 91.757 33.8528 91.5313 33.8528H90.7203V34.4276ZM94.6497 35.5772H93.4214V31.6396H94.6497V35.5772Z" fill="#01266A"/>
<path d="M99.2563 35.5768H98.0279V33.6001L96.3348 35.5768H95.5315V31.6392H96.7601V33.6159L98.4532 31.6392H99.2563V35.5768ZM98.3311 30.9898C98.0818 31.2339 97.776 31.3559 97.4136 31.3559C97.0513 31.3559 96.7443 31.2339 96.4923 30.9898C96.2403 30.7457 96.1144 30.4398 96.1144 30.0723H96.9491C96.9491 30.1981 96.9937 30.3044 97.0829 30.391C97.1722 30.4776 97.2825 30.5212 97.4136 30.5212C97.5398 30.5212 97.6472 30.4776 97.7365 30.391C97.8257 30.3044 97.8705 30.1981 97.8705 30.0723H98.7052C98.7052 30.4398 98.5803 30.7457 98.3311 30.9898Z" fill="#01266A"/>
<path d="M102.485 31.6396H104.548C105.482 31.6396 105.95 32.0048 105.95 32.7342C105.95 33.1387 105.779 33.4038 105.438 33.5297C105.663 33.5771 105.837 33.6752 105.957 33.825C106.078 33.9748 106.139 34.1572 106.139 34.3725C106.139 34.8133 106.014 35.1244 105.765 35.3053C105.515 35.4867 105.11 35.5772 104.548 35.5772H102.485V31.6396ZM103.713 32.6792V33.1205H104.485C104.642 33.1099 104.721 33.0362 104.721 32.8998C104.721 32.7529 104.635 32.6792 104.461 32.6792H103.713ZM103.713 34.5377H104.587C104.803 34.5377 104.91 34.4486 104.91 34.2701C104.91 34.0968 104.808 34.0073 104.603 34.0021H103.713V34.5377Z" fill="#01266A"/>
<path d="M108.525 31.5845C109.344 31.5845 109.913 31.9233 110.234 32.6006C110.328 32.7949 110.379 33.0232 110.387 33.2855C110.395 33.5482 110.362 33.7737 110.289 33.9627H107.816C107.816 34.1307 107.885 34.2633 108.024 34.3604C108.164 34.4576 108.333 34.5059 108.533 34.5059C108.926 34.5059 109.291 34.438 109.627 34.3016L110.265 35.0022C109.703 35.4172 109.126 35.6244 108.533 35.6244C107.95 35.6244 107.473 35.4316 107.103 35.0453C106.733 34.6596 106.548 34.1805 106.548 33.6085C106.548 33.0308 106.727 32.5494 107.084 32.1631C107.44 31.7774 107.921 31.5845 108.525 31.5845ZM108.525 32.7107C108.336 32.7107 108.179 32.7619 108.056 32.8643C107.933 32.9667 107.868 33.0754 107.863 33.1912H109.178C109.178 33.1122 109.147 33.0361 109.084 32.9624C108.963 32.7949 108.777 32.7107 108.525 32.7107Z" fill="#01266A"/>
<path d="M113.69 30.0649H114.919C114.919 30.5005 114.803 30.8312 114.573 31.0571C114.341 31.2825 113.942 31.3955 113.375 31.3955H113.076C112.793 31.3955 112.566 31.4639 112.395 31.6003C112.224 31.7367 112.139 31.9205 112.139 32.1517V32.2776C112.239 32.1359 112.38 32.0229 112.564 31.9387C112.748 31.855 112.948 31.8128 113.163 31.8128C113.714 31.8128 114.15 31.9799 114.47 32.313C114.79 32.6466 114.95 33.0783 114.95 33.6086C114.95 34.1911 114.767 34.6769 114.399 35.0655C114.032 35.4536 113.541 35.648 112.927 35.648C112.349 35.648 111.869 35.4536 111.485 35.0655C111.102 34.6769 110.911 34.1547 110.911 33.498V32.6083C110.911 31.9047 111.106 31.3548 111.497 30.9585C111.888 30.5622 112.449 30.3641 113.179 30.3641C113.373 30.3641 113.507 30.343 113.58 30.3009C113.654 30.2588 113.69 30.1803 113.69 30.0649ZM113.474 33.1558C113.314 33.0113 113.131 32.939 112.927 32.939C112.722 32.939 112.539 33.0113 112.379 33.1558C112.219 33.2999 112.139 33.4822 112.139 33.7029C112.139 33.9235 112.218 34.1035 112.375 34.2423C112.533 34.3816 112.717 34.451 112.927 34.451C113.131 34.451 113.314 34.3816 113.474 34.2423C113.634 34.1035 113.714 33.9235 113.714 33.7029C113.714 33.4822 113.634 33.2999 113.474 33.1558Z" fill="#01266A"/>
<path d="M117.312 33.687H115.359V32.939H117.312V33.687Z" fill="#01266A"/>
<path d="M121.77 35.5772H120.541V32.829H119.195V35.5772H117.966V31.6396H121.77V35.5772Z" fill="#01266A"/>
<path d="M124.731 31.5928C125.282 31.5928 125.734 31.7866 126.089 32.1752C126.443 32.5639 126.62 33.0415 126.62 33.6087C126.62 34.1754 126.443 34.6545 126.089 35.0455C125.734 35.437 125.282 35.6323 124.731 35.6323C124.431 35.6323 124.161 35.559 123.919 35.4116V37.026H122.691V31.6397H123.502L123.573 32.0254C123.888 31.7368 124.274 31.5928 124.731 31.5928ZM124.604 32.7816C124.4 32.7816 124.217 32.8563 124.057 33.0061C123.897 33.1559 123.817 33.3565 123.817 33.6087C123.817 33.8604 123.897 34.0629 124.057 34.2151C124.217 34.3673 124.4 34.4434 124.604 34.4434C124.814 34.4434 124.998 34.3673 125.156 34.2151C125.313 34.0629 125.392 33.8604 125.392 33.6087C125.392 33.3565 125.313 33.1559 125.156 33.0061C124.998 32.8563 124.814 32.7816 124.604 32.7816Z" fill="#01266A"/>
<path d="M129.053 31.5845C129.615 31.5845 130.093 31.7826 130.486 32.1789C130.88 32.5757 131.077 33.0519 131.077 33.6085C131.077 34.1647 130.88 34.6399 130.486 35.0338C130.093 35.4273 129.615 35.6244 129.053 35.6244C128.492 35.6244 128.015 35.4273 127.624 35.0338C127.233 34.6399 127.037 34.1647 127.037 33.6085C127.037 33.0466 127.234 32.569 127.628 32.1751C128.022 31.7812 128.497 31.5845 129.053 31.5845ZM129.605 33.0021C129.447 32.8499 129.263 32.7738 129.053 32.7738C128.843 32.7738 128.66 32.8499 128.502 33.0021C128.345 33.1543 128.266 33.3563 128.266 33.6085C128.266 33.8603 128.345 34.0613 128.502 34.2106C128.66 34.3604 128.843 34.4351 129.053 34.4351C129.263 34.4351 129.447 34.3604 129.605 34.2106C129.762 34.0613 129.841 33.8603 129.841 33.6085C129.841 33.3563 129.762 33.1543 129.605 33.0021Z" fill="#01266A"/>
<path d="M135.936 36.231H134.707V35.5772H132.55V36.231H131.321V34.3883H131.951L133.227 31.6396H134.03L135.298 34.3883H135.936V36.231ZM133.621 33.4196L133.203 34.3883H134.038L133.621 33.4196Z" fill="#01266A"/>
<path d="M140.015 35.5771H139.212L139.133 35.1913C138.818 35.4799 138.432 35.6244 137.975 35.6244C137.424 35.6244 136.971 35.4301 136.617 35.0415C136.263 34.6533 136.085 34.1752 136.085 33.6085C136.085 33.0414 136.263 32.5623 136.617 32.1713C136.971 31.7802 137.424 31.5845 137.975 31.5845C138.432 31.5845 138.821 31.7314 139.141 32.0253L139.212 31.6395H140.015V35.5771ZM137.55 34.2106C137.708 34.3604 137.891 34.4351 138.101 34.4351C138.311 34.4351 138.495 34.3604 138.653 34.2106C138.81 34.0613 138.889 33.8603 138.889 33.6085C138.889 33.3563 138.81 33.1543 138.653 33.0021C138.495 32.8499 138.311 32.7738 138.101 32.7738C137.891 32.7738 137.708 32.8499 137.55 33.0021C137.393 33.1543 137.314 33.3563 137.314 33.6085C137.314 33.8603 137.393 34.0613 137.55 34.2106Z" fill="#01266A"/>
<path d="M143.543 35.5772L142.85 34.5061C142.761 34.3697 142.677 34.2768 142.598 34.2266C142.519 34.1768 142.411 34.1519 142.275 34.1519H142.173V35.5772H140.944V31.6396H142.173V32.9625H142.267C142.404 32.9625 142.511 32.9381 142.59 32.8879C142.669 32.8381 142.753 32.7476 142.842 32.616L143.472 31.6396H144.834L143.881 33.0889C143.819 33.1832 143.737 33.2789 143.637 33.3761C143.538 33.4732 143.456 33.535 143.393 33.5613C143.461 33.5823 143.544 33.6398 143.641 33.7345C143.738 33.8288 143.821 33.926 143.889 34.026L144.905 35.5772H143.543Z" fill="#01266A"/>
<path d="M151.26 35.5772H145.323V31.6396H146.551V34.3883H147.677V31.6396H148.906V34.3883H150.032V31.6396H151.26V35.5772Z" fill="#01266A"/>
<path d="M155.953 35.5772H154.725V34.1677H153.378V35.5772H152.15V31.6396H153.378V32.9783H154.725V31.6396H155.953V35.5772Z" fill="#01266A"/>
<path d="M81.502 8.95483V9.91242C80.2671 9.18164 78.8271 8.76074 77.2882 8.76074C72.7108 8.76074 69.0001 12.4714 69.0001 17.0488C69.0001 21.6262 72.7108 25.3369 77.2882 25.3369C78.8271 25.3369 80.2671 24.916 81.502 24.1853V25.1426H85.6136V8.95483H81.502ZM77.2882 21.4704C74.8501 21.4704 72.8666 19.4869 72.8666 17.0488C72.8666 14.6107 74.8501 12.6272 77.2882 12.6272C79.7263 12.6272 81.7098 14.6107 81.7099 17.0488C81.7099 19.487 79.7264 21.4705 77.2882 21.4704Z" fill="#01266A"/>
<path d="M18.387 0L18.4936 2.23151L19.7873 4.05296L17.5557 4.15944L15.7341 5.45301L15.6276 3.2215L14.3339 1.40006L16.5655 1.29357L18.387 0Z" fill="#D0502E"/>
<path d="M11.7363 15.1339L15.045 6.81836L11.8307 10.8437C10.3722 9.55973 8.45958 8.77936 6.36368 8.77936C3.80604 8.77936 1.51993 9.93967 0.00124016 11.762L2.6715 14.6442C3.46076 13.4413 4.82058 12.6447 6.36367 12.6447C7.5456 12.6447 8.61964 13.1126 9.41273 13.8717L6.41051 17.6315L10.7391 17.6315C10.4572 19.7954 8.6032 21.4724 6.36367 21.4724C4.8199 21.4724 3.45957 20.6751 2.67047 19.4713L0 22.3537C1.51869 24.1769 3.80536 25.3378 6.36367 25.3378C10.9362 25.3378 14.6429 21.6311 14.6429 17.0586C14.6429 15.6431 14.2869 14.3112 13.6605 13.1462L11.7363 15.1339Z" fill="#0D2261"/>
</svg>
