<svg width="46" height="46" viewBox="0 0 46 46" fill="none" xmlns="http://www.w3.org/2000/svg">
<g opacity="0.200986">
<rect x="0.143417" y="0.166992" width="45.266" height="45.266" rx="19" fill="#D8D8D8"/>
<mask id="mask0" mask-type="alpha" maskUnits="userSpaceOnUse" x="0" y="0" width="46" height="46">
<rect x="0.143417" y="0.166992" width="45.266" height="45.266" rx="19" fill="white"/>
</mask>
<g mask="url(#mask0)">
<rect x="0.143417" y="0.166992" width="45.266" height="45.266" fill="url(#paint0_linear)"/>
</g>
</g>
<mask id="mask1" mask-type="alpha" maskUnits="userSpaceOnUse" x="11" y="7" width="26" height="27">
<path fill-rule="evenodd" clip-rule="evenodd" d="M27.5252 7.69593C27.551 7.70738 27.5708 7.71889 27.5936 7.73344C27.7002 7.79764 27.7946 7.88034 27.8544 7.99765L35.9486 23.8835C36.0084 24.0008 36.0198 24.1258 36.0091 24.2498C36.0062 24.2774 36.0039 24.3001 35.9992 24.3272C35.9762 24.4482 35.9268 24.5596 35.8435 24.6528C35.8404 24.6559 35.8405 24.662 35.8374 24.6651C35.7808 24.7232 35.7186 24.7703 35.649 24.8058C35.5598 24.8512 35.4661 24.8728 35.3723 24.879C35.3594 24.8795 35.3465 24.877 35.3334 24.8744C35.3234 24.8724 35.3132 24.8705 35.3029 24.8698C35.2305 24.8666 35.1587 24.8555 35.0916 24.8297C35.0865 24.8275 35.0814 24.8269 35.0766 24.8264C35.0721 24.8259 35.0678 24.8255 35.064 24.8237C31.9802 23.4812 28.536 23.289 25.3376 24.2045L21.3583 16.3948C23.9789 14.3453 25.8473 11.4446 26.5737 8.16071C26.5749 8.15702 26.5772 8.15394 26.5795 8.15086C26.5818 8.14777 26.584 8.14469 26.5852 8.141C26.6162 8.02361 26.6768 7.91888 26.7644 7.83112C26.7767 7.81905 26.7897 7.80965 26.8029 7.80016C26.8106 7.79459 26.8183 7.78899 26.826 7.78281C26.8378 7.77331 26.8487 7.76324 26.8596 7.75323C26.882 7.73258 26.9041 7.71224 26.9321 7.69798C26.9866 7.67021 27.0436 7.6595 27.1001 7.64891C27.1069 7.64762 27.1138 7.64634 27.1206 7.64502C27.1276 7.64374 27.1331 7.64017 27.1386 7.6366C27.1441 7.63304 27.1496 7.62947 27.1567 7.62819C27.1588 7.62787 27.1611 7.62861 27.1634 7.62936C27.1657 7.63011 27.168 7.63086 27.1702 7.63054C27.2946 7.61794 27.4144 7.64463 27.5252 7.69593ZM20.226 17.1933L24.0253 24.6499C23.9451 24.6817 23.8642 24.7117 23.7832 24.7416C23.6431 24.7935 23.503 24.8453 23.3667 24.907L21.7439 25.7338L25.8845 28.7913C26.355 29.1226 26.5641 29.7534 26.3801 30.3197L25.654 32.5228C25.5499 32.8683 25.3055 33.156 24.9793 33.3223C24.8986 33.3634 24.8124 33.3965 24.7218 33.4211C24.2664 33.5485 23.7853 33.435 23.4351 33.1193L17.6429 27.8234L17.2726 28.0121C16.9353 28.1839 16.5221 28.0496 16.3503 27.7124L16.039 27.1014L14.206 28.0353C13.8687 28.2072 13.4555 28.0729 13.2837 27.7357L11.4158 24.0697C11.2439 23.7324 11.3782 23.3192 11.7155 23.1474L13.5484 22.2134L13.2371 21.6024C13.0653 21.2652 13.1995 20.852 13.5368 20.6801L19.6247 17.5782C19.7561 17.5034 19.8813 17.4202 20.0065 17.3368C20.0793 17.2885 20.152 17.2401 20.226 17.1933Z" fill="white"/>
</mask>
<g mask="url(#mask1)">
<rect x="7.99065" y="17.3491" width="21.9863" height="21.9863" transform="rotate(-27 7.99065 17.3491)" fill="url(#paint1_linear)"/>
</g>
<defs>
<linearGradient id="paint0_linear" x1="57.0633" y1="11.8137" x2="11.7973" y2="-11.494" gradientUnits="userSpaceOnUse">
<stop stop-color="#ED3A4E"/>
<stop offset="1" stop-color="#ED3A4E" stop-opacity="0.75"/>
</linearGradient>
<linearGradient id="paint1_linear" x1="35.6374" y1="23.0061" x2="13.6511" y2="11.6852" gradientUnits="userSpaceOnUse">
<stop stop-color="#D52E25"/>
<stop offset="1" stop-color="#D52E25"/>
</linearGradient>
</defs>
</svg>
