<svg width="74" height="74" viewBox="0 0 74 74" fill="none" xmlns="http://www.w3.org/2000/svg">
<g opacity="0.200986">
<rect x="0.048584" y="0.355957" width="73.5849" height="73.5849" rx="19" fill="#D8D8D8"/>
<mask id="mask0" mask-type="alpha" maskUnits="userSpaceOnUse" x="0" y="0" width="74" height="74">
<rect x="0.048584" y="0.355957" width="73.5849" height="73.5849" rx="19" fill="white"/>
</mask>
<g mask="url(#mask0)">
<rect x="0.048584" y="0.355957" width="73.5849" height="73.5849" fill="url(#paint0_linear)"/>
</g>
</g>
<mask id="mask1" mask-type="alpha" maskUnits="userSpaceOnUse" x="18" y="12" width="41" height="43">
<path fill-rule="evenodd" clip-rule="evenodd" d="M44.5605 12.5951C44.6025 12.6137 44.6346 12.6324 44.6717 12.656C44.8449 12.7604 44.9985 12.8949 45.0957 13.0856L58.2538 38.9097C58.3509 39.1004 58.3694 39.3037 58.352 39.5052L58.3515 39.5098C58.3471 39.5527 58.3434 39.5886 58.336 39.631C58.2986 39.8277 58.2182 40.0088 58.0828 40.1604C58.0803 40.1629 58.0791 40.1666 58.0779 40.1704C58.0767 40.1741 58.0754 40.1779 58.073 40.1804C57.981 40.2748 57.8798 40.3514 57.7666 40.4091C57.6216 40.4829 57.4693 40.518 57.3168 40.5281C57.2959 40.5289 57.2749 40.5248 57.2535 40.5206C57.2373 40.5174 57.2209 40.5142 57.204 40.513C57.0863 40.5079 56.9696 40.4899 56.8606 40.4478C56.8523 40.4443 56.844 40.4434 56.8362 40.4426C56.8289 40.4418 56.8219 40.4411 56.8156 40.4382C51.8027 38.2558 46.2037 37.9433 41.0043 39.4315L34.5356 26.736C38.7957 23.4043 41.8329 18.689 43.0138 13.3506C43.0158 13.3446 43.0195 13.3396 43.0232 13.3346C43.0269 13.3296 43.0306 13.3246 43.0325 13.3186C43.0829 13.1278 43.1813 12.9575 43.3238 12.8148C43.3438 12.7952 43.3649 12.7799 43.3863 12.7645C43.3989 12.7555 43.4115 12.7464 43.4239 12.7363C43.443 12.7209 43.4608 12.7045 43.4785 12.6882C43.5149 12.6547 43.5509 12.6216 43.5964 12.5984C43.6849 12.5533 43.7777 12.5359 43.8694 12.5186C43.8806 12.5165 43.8917 12.5145 43.9028 12.5123C43.9143 12.5102 43.9232 12.5044 43.9321 12.4986C43.9411 12.4928 43.95 12.487 43.9614 12.485C43.9649 12.4844 43.9687 12.4856 43.9724 12.4869C43.9762 12.4881 43.9799 12.4893 43.9834 12.4888C44.1857 12.4683 44.3804 12.5117 44.5605 12.5951ZM32.6948 28.0342L38.871 40.1556C38.7407 40.2074 38.6091 40.2561 38.4775 40.3048C38.2498 40.389 38.022 40.4733 37.8004 40.5736L35.1623 41.9177L41.8934 46.8879C42.6583 47.4265 42.9981 48.4519 42.699 49.3725L41.5187 52.954C41.3495 53.5156 40.9522 53.9833 40.4218 54.2535C40.2907 54.3203 40.1505 54.3742 40.0033 54.4143C39.263 54.6213 38.4809 54.4368 37.9117 53.9236L28.4957 45.3145L27.8938 45.6212C27.3455 45.9006 26.6738 45.6823 26.3945 45.134L25.8884 44.1408L22.9087 45.659C22.3604 45.9384 21.6887 45.7202 21.4094 45.1719L18.3729 39.2125C18.0935 38.6642 18.3118 37.9925 18.8601 37.7131L21.8398 36.1949L21.3337 35.2017C21.0543 34.6534 21.2726 33.9817 21.8208 33.7023L31.7175 28.6598C31.931 28.5383 32.1345 28.4029 32.3381 28.2675C32.4563 28.1888 32.5746 28.1102 32.6948 28.0342Z" fill="white"/>
</mask>
<g mask="url(#mask1)">
<rect x="12.8051" y="28.2874" width="35.7412" height="35.7412" transform="rotate(-27 12.8051 28.2874)" fill="url(#paint1_linear)"/>
</g>
<defs>
<linearGradient id="paint0_linear" x1="92.5781" y1="19.2889" x2="18.9932" y2="-18.6003" gradientUnits="userSpaceOnUse">
<stop stop-color="#ED3A4E"/>
<stop offset="1" stop-color="#ED3A4E" stop-opacity="0.75"/>
</linearGradient>
<linearGradient id="paint1_linear" x1="57.748" y1="37.4834" x2="22.0067" y2="19.08" gradientUnits="userSpaceOnUse">
<stop stop-color="#D52E25"/>
<stop offset="1" stop-color="#D52E25"/>
</linearGradient>
</defs>
</svg>
