<svg width="75" height="74" viewBox="0 0 75 74" fill="none" xmlns="http://www.w3.org/2000/svg">
<g opacity="0.200986">
<rect x="0.970398" y="0.048584" width="73.5849" height="73.5849" rx="19" fill="#D8D8D8"/>
<mask id="mask0" mask-type="alpha" maskUnits="userSpaceOnUse" x="0" y="0" width="75" height="74">
<rect x="0.970398" y="0.048584" width="73.5849" height="73.5849" rx="19" fill="white"/>
</mask>
<g mask="url(#mask0)">
<rect x="0.970398" y="0.048584" width="73.5849" height="73.5849" fill="url(#paint0_linear)"/>
</g>
</g>
<mask id="mask1" mask-type="alpha" maskUnits="userSpaceOnUse" x="18" y="16" width="39" height="41">
<path d="M37.3298 16.8727C37.3138 16.8727 37.3074 16.8727 37.301 16.8727C37.2882 16.8727 37.2882 16.8727 37.285 16.8727C37.285 16.8727 37.285 16.8727 37.2802 16.8727C37.2754 16.8727 37.269 16.8727 37.2626 16.8727C37.2595 16.8727 37.2595 16.8727 37.2595 16.8727C37.2595 16.8727 37.2595 16.8727 37.2531 16.8727C37.2099 16.8631 37.1971 16.8695 37.1652 16.8695C32.0473 16.8695 27.0684 18.8988 23.3886 22.4668L19.3428 18.3587C19.1463 18.167 18.8491 18.1062 18.6062 18.2085C18.3522 18.3172 18.1828 18.56 18.1828 18.8381V32.1769C18.1828 32.5524 18.488 32.8559 18.8587 32.8559H32.0345C32.0425 32.8559 32.0569 32.8559 32.0665 32.8559C32.4404 32.8559 32.7439 32.554 32.7439 32.1769C32.7439 31.9276 32.6081 31.7071 32.4052 31.5905L28.409 27.5463C30.7786 25.2582 33.8704 24.0055 37.2611 24.0055C44.1797 24.0502 49.8153 29.7146 49.8153 36.7483C49.7626 43.6606 44.095 49.2866 37.0645 49.2866L37.0805 56.4257H37.178C48.0097 56.4257 56.8842 47.6088 56.9545 36.6508C56.9545 25.8254 48.1599 16.9638 37.3298 16.8727Z" fill="white"/>
</mask>
<g mask="url(#mask1)">
<rect x="17.7898" y="16.8679" width="39.9461" height="39.9461" fill="url(#paint1_linear)"/>
</g>
<defs>
<linearGradient id="paint0_linear" x1="93.4999" y1="18.9815" x2="19.915" y2="-18.9077" gradientUnits="userSpaceOnUse">
<stop stop-color="#1D46F6"/>
<stop offset="1" stop-color="#1D46F6" stop-opacity="0.63"/>
</linearGradient>
<linearGradient id="paint1_linear" x1="68.0201" y1="27.1458" x2="28.074" y2="6.57739" gradientUnits="userSpaceOnUse">
<stop stop-color="#09387E"/>
<stop offset="1" stop-color="#09387E"/>
</linearGradient>
</defs>
</svg>
