<svg width="46" height="46" viewBox="0 0 46 46" fill="none" xmlns="http://www.w3.org/2000/svg">
<g opacity="0.200986">
<rect x="0.602783" y="0.377258" width="45.266" height="45.266" rx="19" fill="#D8D8D8"/>
<mask id="mask0" mask-type="alpha" maskUnits="userSpaceOnUse" x="0" y="0" width="46" height="46">
<rect x="0.602783" y="0.377258" width="45.266" height="45.266" rx="19" fill="white"/>
</mask>
<g mask="url(#mask0)">
<rect x="0.602783" y="0.377258" width="45.266" height="45.266" fill="url(#paint0_linear)"/>
</g>
</g>
<mask id="mask1" mask-type="alpha" maskUnits="userSpaceOnUse" x="11" y="11" width="25" height="24">
<path d="M23.3962 11.0798C23.3865 11.0798 23.3827 11.0798 23.3788 11.0798C23.3711 11.0798 23.3711 11.0798 23.3692 11.0798C23.3692 11.0798 23.3692 11.0798 23.3663 11.0798C23.3634 11.0798 23.3596 11.0798 23.3557 11.0798C23.3538 11.0798 23.3538 11.0798 23.3538 11.0798C23.3538 11.0798 23.3538 11.0798 23.35 11.0798C23.324 11.074 23.3163 11.0779 23.2971 11.0779C20.2156 11.0779 17.2179 12.2997 15.0023 14.4479L12.5663 11.9745C12.448 11.859 12.2691 11.8225 12.1228 11.8841C11.9699 11.9495 11.8679 12.0957 11.8679 12.2631V20.2943C11.8679 20.5204 12.0516 20.7032 12.2748 20.7032H20.2079C20.2127 20.7032 20.2214 20.7032 20.2272 20.7032C20.4523 20.7032 20.6351 20.5213 20.6351 20.2943C20.6351 20.1442 20.5533 20.0115 20.4311 19.9412L18.025 17.5063C19.4517 16.1286 21.3133 15.3744 23.3548 15.3744C27.5205 15.4013 30.9136 18.8118 30.9136 23.0467C30.8819 27.2086 27.4695 30.5959 23.2365 30.5959L23.2461 34.8944H23.3048C29.8265 34.8944 35.1697 29.5858 35.2121 22.988C35.2121 16.4702 29.9169 11.1346 23.3962 11.0798Z" fill="white"/>
</mask>
<g mask="url(#mask1)">
<rect x="11.6303" y="11.0769" width="24.0513" height="24.0513" fill="url(#paint1_linear)"/>
</g>
<defs>
<linearGradient id="paint0_linear" x1="57.5226" y1="12.0239" x2="12.2566" y2="-11.2838" gradientUnits="userSpaceOnUse">
<stop stop-color="#1D46F6"/>
<stop offset="1" stop-color="#1D46F6" stop-opacity="0.63"/>
</linearGradient>
<linearGradient id="paint1_linear" x1="41.8737" y1="17.2652" x2="17.8224" y2="4.88103" gradientUnits="userSpaceOnUse">
<stop stop-color="#09387E"/>
<stop offset="1" stop-color="#09387E"/>
</linearGradient>
</defs>
</svg>
