<svg width="46" height="46" viewBox="0 0 46 46" fill="none" xmlns="http://www.w3.org/2000/svg">
<g opacity="0.200986">
<rect x="0.602783" y="0.166992" width="45.266" height="45.266" rx="19" fill="#D8D8D8"/>
<mask id="mask0" mask-type="alpha" maskUnits="userSpaceOnUse" x="0" y="0" width="46" height="46">
<rect x="0.602783" y="0.166992" width="45.266" height="45.266" rx="19" fill="white"/>
</mask>
<g mask="url(#mask0)">
<rect x="0.602783" y="0.166992" width="45.266" height="45.266" fill="url(#paint0_linear)"/>
</g>
</g>
<mask id="mask1" mask-type="alpha" maskUnits="userSpaceOnUse" x="10" y="14" width="27" height="17">
<path fill-rule="evenodd" clip-rule="evenodd" d="M15.0496 17.4967L19.3916 21.8388C20.3772 21.0503 21.5742 20.5379 22.8926 20.3896V14.2443C19.8901 14.4202 17.1639 15.6159 15.0496 17.4967ZM13.9702 18.5762C11.9302 20.8694 10.6282 23.879 10.6282 27.1825C10.6282 27.6045 10.9696 27.9459 11.3916 27.9459H16.0225C16.4444 27.9459 16.7859 27.6045 16.7859 27.1825C16.7859 25.5636 17.372 24.0936 18.3122 22.9182L13.9702 18.5762ZM28.6401 21.1444C28.9241 20.9603 29.2968 20.9894 29.554 21.2137C29.809 21.4373 29.8858 21.8026 29.7426 22.1097L26.4246 29.2333C25.9266 30.306 24.8398 30.9993 23.656 30.9993C21.972 30.9993 20.6026 29.6299 20.6026 27.9459C20.6026 26.8978 21.1304 25.9354 22.0152 25.3704L28.6401 21.1444ZM33.3418 18.5762L31.0981 20.8198C31.3807 21.4229 31.4178 22.1289 31.1262 22.7545L30.1224 24.9094C30.3809 25.6193 30.5261 26.3823 30.5261 27.1825C30.5261 27.6045 30.8675 27.9459 31.2894 27.9459H35.9204C36.3423 27.9459 36.6838 27.6045 36.6838 27.1825C36.6838 23.879 35.3818 20.8694 33.3418 18.5762ZM24.4193 20.3896V14.2443C27.4218 14.4202 30.148 15.6159 32.2624 17.4967L30.0181 19.741C29.2174 19.3617 28.4485 19.4492 27.8194 19.8569L26.249 20.8587C25.6744 20.6237 25.062 20.4619 24.4193 20.3896Z" fill="white"/>
</mask>
<g mask="url(#mask1)">
<rect x="10.6282" y="9.59402" width="26.0556" height="26.0556" fill="url(#paint1_linear)"/>
</g>
<defs>
<linearGradient id="paint0_linear" x1="57.5226" y1="11.8137" x2="12.2566" y2="-11.494" gradientUnits="userSpaceOnUse">
<stop stop-color="#ED3A4E"/>
<stop offset="1" stop-color="#ED3A4E" stop-opacity="0.75"/>
</linearGradient>
<linearGradient id="paint1_linear" x1="43.3918" y1="16.298" x2="17.3363" y2="2.88184" gradientUnits="userSpaceOnUse">
<stop stop-color="#D52E25"/>
<stop offset="1" stop-color="#D52E25"/>
</linearGradient>
</defs>
</svg>
