<svg width="75" height="74" viewBox="0 0 75 74" fill="none" xmlns="http://www.w3.org/2000/svg">
<g opacity="0.200986">
<rect x="0.970398" y="0.355957" width="73.5849" height="73.5849" rx="19" fill="#D8D8D8"/>
<mask id="mask0" mask-type="alpha" maskUnits="userSpaceOnUse" x="0" y="0" width="75" height="74">
<rect x="0.970398" y="0.355957" width="73.5849" height="73.5849" rx="19" fill="white"/>
</mask>
<g mask="url(#mask0)">
<rect x="0.970398" y="0.355957" width="73.5849" height="73.5849" fill="url(#paint0_linear)"/>
</g>
</g>
<mask id="mask1" mask-type="alpha" maskUnits="userSpaceOnUse" x="16" y="23" width="43" height="28">
<path fill-rule="evenodd" clip-rule="evenodd" d="M23.8738 28.8777L30.881 35.8848C32.4715 34.6124 34.4033 33.7855 36.5309 33.5461V23.6289C31.6855 23.9128 27.286 25.8423 23.8738 28.8777ZM22.1319 30.6196C18.8397 34.3204 16.7386 39.1773 16.7386 44.5086C16.7386 45.1895 17.2896 45.7405 17.9705 45.7405H25.4439C26.1248 45.7405 26.6758 45.1895 26.6758 44.5086C26.6758 41.896 27.6217 39.5237 29.139 37.6268L22.1319 30.6196ZM45.8062 34.7643C46.2645 34.4672 46.866 34.5141 47.2811 34.8762C47.6925 35.237 47.8165 35.8265 47.5854 36.3221L42.2308 47.8181C41.4272 49.5493 39.6733 50.6681 37.7628 50.6681C35.0452 50.6681 32.8353 48.4582 32.8353 45.7405C32.8353 44.0491 33.687 42.496 35.115 41.5841L45.8062 34.7643ZM53.3938 30.6196L49.773 34.2404C50.229 35.2137 50.2889 36.353 49.8183 37.3627L48.1984 40.8403C48.6155 41.9859 48.8498 43.2172 48.8498 44.5086C48.8498 45.1895 49.4008 45.7405 50.0817 45.7405H57.5552C58.2361 45.7405 58.7871 45.1895 58.7871 44.5086C58.7871 39.1773 56.686 34.3204 53.3938 30.6196ZM38.9947 33.5461V23.6289C43.8402 23.9128 48.2397 25.8423 51.6518 28.8777L48.03 32.4995C46.7378 31.8873 45.4971 32.0285 44.4817 32.6865L41.9474 34.3032C41.0201 33.9239 40.0319 33.6628 38.9947 33.5461Z" fill="white"/>
</mask>
<g mask="url(#mask1)">
<rect x="16.7386" y="16.1243" width="42.0485" height="42.0485" fill="url(#paint1_linear)"/>
</g>
<defs>
<linearGradient id="paint0_linear" x1="93.4999" y1="19.2889" x2="19.915" y2="-18.6003" gradientUnits="userSpaceOnUse">
<stop stop-color="#ED3A4E"/>
<stop offset="1" stop-color="#ED3A4E" stop-opacity="0.75"/>
</linearGradient>
<linearGradient id="paint1_linear" x1="69.6126" y1="26.9431" x2="27.5641" y2="5.29212" gradientUnits="userSpaceOnUse">
<stop stop-color="#D52E25"/>
<stop offset="1" stop-color="#D52E25"/>
</linearGradient>
</defs>
</svg>
