<svg width="34" height="34" viewBox="0 0 34 34" fill="none" xmlns="http://www.w3.org/2000/svg">
<path d="M17 0C26.3891 0 34 7.6109 34 17C34 26.3891 26.3891 34 17 34C7.6109 34 0 26.3891 0 17C0 7.6109 7.6109 0 17 0ZM24.3389 11.5736C24.1538 11.3886 23.907 11.2784 23.6456 11.2641C23.3843 11.2498 23.1269 11.3325 22.9228 11.4963L22.8361 11.5736L14.2375 20.1722L11.1639 17.0986C10.9718 16.9064 10.7133 16.7951 10.4416 16.7877C10.17 16.7802 9.90575 16.8771 9.70337 17.0585C9.50098 17.2399 9.37579 17.4919 9.35354 17.7628C9.33129 18.0336 9.41367 18.3027 9.58375 18.5147L9.6611 18.6014L13.4861 22.4264C13.6712 22.6114 13.918 22.7216 14.1794 22.7359C14.4407 22.7502 14.6981 22.6675 14.9022 22.5038L14.9889 22.4264L24.3389 13.0764C24.4376 12.9777 24.5159 12.8606 24.5693 12.7317C24.6227 12.6027 24.6502 12.4646 24.6502 12.325C24.6502 12.1854 24.6227 12.0473 24.5693 11.9183C24.5159 11.7894 24.4376 11.6723 24.3389 11.5736Z" fill="#1C3975"/>
</svg>
